<?xml version="1.0" standalone="no"?>
<!DOCTYPE svg PUBLIC "-//W3C//DTD SVG 20010904//EN"
 "http://www.w3.org/TR/2001/REC-SVG-20010904/DTD/svg10.dtd">
<svg version="1.0" xmlns="http://www.w3.org/2000/svg"
 width="256.000000pt" height="256.000000pt" viewBox="0 0 256.000000 256.000000"
 preserveAspectRatio="xMidYMid meet">
<metadata>
Created by potrace 1.11, written by Peter Selinger 2001-2013
</metadata>
<g transform="translate(0.000000,256.000000) scale(0.100000,-0.100000)"
fill="#000000" stroke="none">
<path d="M1025 2546 c-16 -7 -39 -24 -51 -37 -19 -21 -109 -170 -127 -209 -3
-8 -37 -67 -74 -130 l-68 -115 -339 -1 c-318 -1 -340 -2 -352 -19 -20 -27 -17
-43 11 -71 l25 -25 0 -227 c0 -226 0 -227 -22 -237 -28 -12 -34 -43 -15 -70
14 -18 30 -19 313 -20 261 -1 308 -3 371 -20 l71 -19 -23 -31 c-13 -17 -38
-61 -55 -98 -32 -67 -32 -67 -73 -67 -52 0 -101 -28 -122 -71 -13 -25 -17 -61
-17 -170 0 -125 3 -143 22 -174 27 -43 66 -65 118 -65 38 0 38 0 83 -87 44
-88 142 -201 227 -264 l33 -24 1 -105 c1 -177 17 -190 230 -190 171 0 195 9
223 87 10 26 24 62 30 79 l12 30 89 -2 c111 -2 101 2 109 -35 11 -49 42 -113
66 -135 18 -17 39 -19 166 -22 166 -4 183 -1 218 34 28 28 27 21 29 196 l1
127 35 33 c81 77 177 230 194 308 3 14 10 45 17 70 6 25 11 83 11 130 l1 86
43 18 c71 29 122 108 120 186 -1 26 -7 37 -26 47 -36 18 -60 -2 -75 -62 -12
-45 -44 -84 -71 -85 -6 0 -21 30 -33 66 -23 64 -56 101 -83 92 -6 -2 -27 17
-45 43 -25 37 -31 55 -27 77 8 40 -18 66 -61 58 -26 -5 -39 0 -70 24 -21 16
-42 30 -47 30 -5 0 -7 8 -3 19 9 30 -26 60 -102 86 -83 28 -149 37 -288 40
-55 2 -101 3 -102 4 -1 0 9 25 22 54 61 133 -21 300 -163 331 -28 7 -32 12
-32 40 0 68 -56 135 -130 157 -39 12 -49 26 -31 44 21 22 51 88 57 124 8 50
-22 120 -65 150 -39 28 -115 36 -156 17z m78 -669 c-22 -43 -26 -131 -8 -175
24 -56 21 -62 -30 -57 -75 7 -125 58 -125 128 0 86 71 151 151 139 28 -4 28
-4 12 -35z"/>
</g>
</svg>
